<svg width="24" height="25" viewBox="0 0 24 25" fill="none" xmlns="http://www.w3.org/2000/svg">
<path fill-rule="evenodd" clip-rule="evenodd" d="M24 12.5C24 19.1274 18.6274 24.5 12 24.5C5.37258 24.5 0 19.1274 0 12.5C0 5.87258 5.37258 0.5 12 0.5C18.6274 0.5 24 5.87258 24 12.5ZM16.7071 7.79289C17.0976 8.18342 17.0976 8.81658 16.7071 9.20711L13.4142 12.5L16.7071 15.7929C17.0976 16.1834 17.0976 16.8166 16.7071 17.2071C16.3166 17.5976 15.6834 17.5976 15.2929 17.2071L12 13.9142L8.70711 17.2071C8.31658 17.5976 7.68342 17.5976 7.29289 17.2071C6.90237 16.8166 6.90237 16.1834 7.29289 15.7929L10.5858 12.5L7.29289 9.20711C6.90237 8.81658 6.90237 8.18342 7.29289 7.79289C7.68342 7.40237 8.31658 7.40237 8.70711 7.79289L12 11.0858L15.2929 7.79289C15.6834 7.40237 16.3166 7.40237 16.7071 7.79289Z" fill="#444444"/>
</svg>
