<svg width="12" height="12" viewBox="0 0 12 12" fill="none" xmlns="http://www.w3.org/2000/svg">
<path d="M6.76687 4.36878L4.36764 6.76801C4.31142 6.82377 4.2668 6.89011 4.23635 6.9632C4.20589 7.03629 4.19022 7.11469 4.19022 7.19387C4.19022 7.27305 4.20589 7.35145 4.23635 7.42454C4.2668 7.49763 4.31142 7.56397 4.36764 7.61973C4.4234 7.67595 4.48974 7.72057 4.56283 7.75103C4.63592 7.78148 4.71432 7.79716 4.7935 7.79716C4.87268 7.79716 4.95108 7.78148 5.02417 7.75103C5.09726 7.72057 5.1636 7.67595 5.21936 7.61973L7.61859 5.22051C7.73154 5.10756 7.79499 4.95437 7.79499 4.79464C7.79499 4.63491 7.73154 4.48173 7.61859 4.36878C7.50565 4.25583 7.35246 4.19238 7.19273 4.19238C7.033 4.19238 6.87981 4.25583 6.76687 4.36878Z" fill="black"/>
<path d="M6.16105 9.23324L5.3933 9.99499C4.9623 10.4391 4.38289 10.709 3.7656 10.7533C3.14831 10.7975 2.53632 10.613 2.04638 10.2349C1.78743 10.0215 1.57611 9.7562 1.42608 9.45607C1.27606 9.15593 1.19065 8.82766 1.17539 8.49246C1.16013 8.15726 1.21535 7.82259 1.33748 7.51006C1.45961 7.19753 1.64594 6.9141 1.88443 6.67806L2.73616 5.82034C2.79238 5.76458 2.837 5.69824 2.86745 5.62515C2.8979 5.55206 2.91358 5.47366 2.91358 5.39448C2.91358 5.31529 2.8979 5.2369 2.86745 5.1638C2.837 5.09071 2.79238 5.02437 2.73616 4.96861C2.6804 4.91239 2.61406 4.86777 2.54097 4.83732C2.46787 4.80687 2.38948 4.79119 2.31029 4.79119C2.23111 4.79119 2.15271 4.80687 2.07962 4.83732C2.00653 4.86777 1.94019 4.91239 1.88443 4.96861L1.12268 5.73637C0.480978 6.35777 0.0865616 7.19091 0.012654 8.08111C-0.0612535 8.97131 0.190369 9.85809 0.720806 10.5768C1.03563 10.9852 1.43376 11.322 1.88874 11.5647C2.34373 11.8074 2.84515 11.9506 3.3597 11.9846C3.87426 12.0187 4.39017 11.9428 4.87316 11.7621C5.35615 11.5815 5.79517 11.3001 6.16105 10.9367L7.01278 10.085C7.12573 9.97202 7.18918 9.81883 7.18918 9.6591C7.18918 9.49937 7.12573 9.34619 7.01278 9.23324C6.89983 9.12029 6.74665 9.05684 6.58692 9.05684C6.42719 9.05684 6.274 9.12029 6.16105 9.23324ZM10.5876 0.727979C9.86396 0.192031 8.96993 -0.0621537 8.07255 0.0129046C7.17516 0.0879629 6.33578 0.48713 5.7112 1.13585L5.06341 1.79564C4.98937 1.84946 4.92745 1.91823 4.88168 1.9975C4.8359 2.07677 4.80728 2.16477 4.79767 2.2558C4.78805 2.34684 4.79767 2.43887 4.82588 2.52595C4.85409 2.61304 4.90027 2.69322 4.96144 2.76132C5.0172 2.81754 5.08354 2.86217 5.15663 2.89262C5.22972 2.92307 5.30812 2.93875 5.3873 2.93875C5.46648 2.93875 5.54488 2.92307 5.61797 2.89262C5.69107 2.86217 5.75741 2.81754 5.81317 2.76132L6.59291 1.97558C7.02154 1.52951 7.60025 1.25811 8.21729 1.2138C8.83432 1.16949 9.44588 1.35541 9.93384 1.73565C10.1947 1.94907 10.4077 2.21505 10.5589 2.51628C10.7102 2.81751 10.7962 3.14722 10.8115 3.48393C10.8268 3.82064 10.7709 4.15679 10.6476 4.47047C10.5243 4.78416 10.3363 5.06834 10.0958 5.30451L9.24406 6.16223C9.18784 6.21799 9.14322 6.28433 9.11277 6.35742C9.08232 6.43051 9.06664 6.50891 9.06664 6.58809C9.06664 6.66727 9.08232 6.74567 9.11277 6.81876C9.14322 6.89186 9.18784 6.9582 9.24406 7.01396C9.29982 7.07017 9.36616 7.1148 9.43925 7.14525C9.51234 7.1757 9.59074 7.19138 9.66992 7.19138C9.7491 7.19138 9.8275 7.1757 9.90059 7.14525C9.97369 7.1148 10.04 7.07017 10.0958 7.01396L10.9475 6.16223C11.3099 5.79641 11.5904 5.35777 11.7705 4.87537C11.9506 4.39296 12.0261 3.87781 11.9921 3.36401C11.958 2.85022 11.8152 2.34952 11.5731 1.89508C11.331 1.44063 10.9951 1.04282 10.5876 0.727979Z" fill="black"/>
</svg>
