<svg width="83" height="30" viewBox="0 0 83 30" fill="none" xmlns="http://www.w3.org/2000/svg">
<path d="M12.5884 23.28C13.9884 23.28 15.4084 22.8 16.5084 22.04L15.5084 20.24C14.7084 20.74 13.9084 21.02 12.9884 21.02C11.3284 21.02 10.1284 20.06 9.88844 18.22H16.7884C16.8684 17.96 16.9284 17.42 16.9284 16.88C16.9284 13.78 15.3284 11.52 12.2484 11.52C9.56844 11.52 7.02844 13.78 7.02844 17.42C7.02844 21.1 9.46844 23.28 12.5884 23.28ZM9.84844 16.28C10.0684 14.64 11.1084 13.8 12.2884 13.8C13.7284 13.8 14.4084 14.76 14.4084 16.28H9.84844ZM20.2514 27.5C22.7514 27.5 23.9514 25.98 24.9314 23.34L28.9114 11.8H26.0914L24.5514 17C24.2914 18.04 24.0114 19.12 23.7514 20.16H23.6514C23.3314 19.08 23.0514 18 22.7114 17L20.9314 11.8H17.9714L22.3314 22.8L22.1314 23.46C21.8114 24.44 21.1714 25.16 20.0314 25.16C19.7714 25.16 19.4514 25.08 19.2514 25.02L18.7114 27.28C19.1514 27.42 19.5914 27.5 20.2514 27.5ZM35.4595 23.28C36.8595 23.28 38.2795 22.8 39.3795 22.04L38.3795 20.24C37.5795 20.74 36.7795 21.02 35.8595 21.02C34.1995 21.02 32.9995 20.06 32.7595 18.22H39.6595C39.7395 17.96 39.7995 17.42 39.7995 16.88C39.7995 13.78 38.1995 11.52 35.1195 11.52C32.4395 11.52 29.8995 13.78 29.8995 17.42C29.8995 21.1 32.3395 23.28 35.4595 23.28ZM32.7195 16.28C32.9395 14.64 33.9795 13.8 35.1595 13.8C36.5995 13.8 37.2795 14.76 37.2795 16.28H32.7195ZM50.8519 23.28C51.8319 23.28 52.6119 23.06 53.2119 22.86L52.7319 20.72C52.4319 20.84 51.9919 20.96 51.6319 20.96C50.6319 20.96 50.1119 20.36 50.1119 19.08V14.12H52.8719V11.8H50.1119V8.8H47.6519L47.3119 11.8L45.5919 11.94V14.12H47.1719V19.08C47.1719 21.6 48.1919 23.28 50.8519 23.28ZM57.4416 23.28C58.7216 23.28 59.8416 22.64 60.8216 21.8H60.8816L61.1016 23H63.5016V16.46C63.5016 13.22 62.0416 11.52 59.2016 11.52C57.4416 11.52 55.8416 12.18 54.5216 13L55.5816 14.94C56.6216 14.34 57.6216 13.88 58.6616 13.88C60.0416 13.88 60.5216 14.72 60.5616 15.82C56.0616 16.3 54.1216 17.56 54.1216 19.96C54.1216 21.86 55.4416 23.28 57.4416 23.28ZM58.4016 20.98C57.5416 20.98 56.9216 20.6 56.9216 19.72C56.9216 18.72 57.8416 17.98 60.5616 17.62V19.88C59.8616 20.58 59.2416 20.98 58.4016 20.98ZM70.438 27.86C74.178 27.86 76.518 26.14 76.518 23.88C76.518 21.92 75.058 21.08 72.358 21.08H70.458C69.138 21.08 68.698 20.76 68.698 20.16C68.698 19.72 68.858 19.46 69.178 19.2C69.658 19.36 70.178 19.46 70.618 19.46C73.018 19.46 74.938 18.18 74.938 15.66C74.938 14.96 74.718 14.34 74.418 13.96H76.338V11.8H72.298C71.838 11.64 71.238 11.52 70.618 11.52C68.238 11.52 66.098 12.94 66.098 15.58C66.098 16.88 66.818 17.94 67.578 18.5V18.58C66.918 19.06 66.338 19.84 66.338 20.68C66.338 21.6 66.778 22.18 67.358 22.56V22.66C66.338 23.24 65.758 24.04 65.758 24.98C65.758 26.96 67.798 27.86 70.438 27.86ZM70.618 17.64C69.638 17.64 68.858 16.9 68.858 15.58C68.858 14.26 69.618 13.52 70.618 13.52C71.618 13.52 72.358 14.26 72.358 15.58C72.358 16.9 71.598 17.64 70.618 17.64ZM70.878 26C69.238 26 68.198 25.46 68.198 24.52C68.198 24.06 68.438 23.62 68.938 23.22C69.338 23.32 69.818 23.38 70.498 23.38H71.858C73.058 23.38 73.718 23.58 73.718 24.38C73.718 25.26 72.558 26 70.878 26Z" fill="#202124"/>
<rect y="16.3" width="10" height="1.92" rx="0.96" fill="#202124"/>
<rect x="73" y="11.8" width="10" height="2.16" rx="1.08" fill="#202124"/>
</svg>
